<svg width="75" height="83" viewBox="0 0 75 83" fill="none" xmlns="http://www.w3.org/2000/svg">
<path d="M14.3939 4.92424C14.3939 2.83225 16.0898 1.13636 18.1818 1.13636H71.2121C73.3041 1.13636 75 2.83225 75 4.92424V4.92424C75 7.01623 73.3041 8.71212 71.2121 8.71212H18.1818C16.0898 8.71212 14.3939 7.01623 14.3939 4.92424V4.92424Z" fill="white"/>
<rect x="14.3939" y="1.13636" width="60.6061" height="8.52273" rx="4.26136" fill="white"/>
<rect x="4.16663" y="32.0074" width="34.0909" height="9.4697" rx="4.73485" transform="rotate(-69.8651 4.16663 32.0074)" fill="white"/>
<rect x="5.71783" y="24.6212" width="56.8182" height="9.4697" rx="4.73485" transform="rotate(0.217868 5.71783 24.6212)" fill="white"/>
<rect y="75.248" width="75.7576" height="9.4697" rx="4.73485" transform="rotate(-41.934 0 75.248)" fill="white"/>
<rect y="77.6082" width="85.2273" height="9.4697" rx="4.73485" transform="rotate(-64.9797 0 77.6082)" fill="white"/>
</svg>
