<svg width="40" height="40" viewBox="0 0 40 40" fill="none" xmlns="http://www.w3.org/2000/svg">
<path d="M11.8182 0C5.30226 0 0 5.30226 0 11.8182V28.1818C0 34.6977 5.30226 40 11.8182 40H28.1818C34.6977 40 40 34.6977 40 28.1818V11.8182C40 5.30226 34.6977 0 28.1818 0H11.8182ZM11.8182 1.81818H28.1818C33.715 1.81818 38.1818 6.28501 38.1818 11.8182V28.1818C38.1818 33.715 33.715 38.1818 28.1818 38.1818H11.8182C6.28501 38.1818 1.81818 33.715 1.81818 28.1818V11.8182C1.81818 6.28501 6.28501 1.81818 11.8182 1.81818ZM30.9091 7.27273C30.4269 7.27273 29.9644 7.46429 29.6234 7.80526C29.2825 8.14624 29.0909 8.6087 29.0909 9.09091C29.0909 9.57312 29.2825 10.0356 29.6234 10.3766C29.9644 10.7175 30.4269 10.9091 30.9091 10.9091C31.3913 10.9091 31.8538 10.7175 32.1947 10.3766C32.5357 10.0356 32.7273 9.57312 32.7273 9.09091C32.7273 8.6087 32.5357 8.14624 32.1947 7.80526C31.8538 7.46429 31.3913 7.27273 30.9091 7.27273ZM20 10C14.4879 10 10 14.4879 10 20C10 25.5121 14.4879 30 20 30C25.5121 30 30 25.5121 30 20C30 14.4879 25.5121 10 20 10ZM20 11.8182C24.5295 11.8182 28.1818 15.4705 28.1818 20C28.1818 24.5295 24.5295 28.1818 20 28.1818C15.4705 28.1818 11.8182 24.5295 11.8182 20C11.8182 15.4705 15.4705 11.8182 20 11.8182Z" fill="white"/>
</svg>
