<svg width="40" height="40" viewBox="0 0 40 40" fill="none" xmlns="http://www.w3.org/2000/svg">
<path d="M20 0C8.9646 0 0 8.9646 0 20C0 31.0354 8.9646 40 20 40C31.0354 40 40 31.0354 40 20C40 8.9646 31.0354 0 20 0ZM20 1.73913C30.0955 1.73913 38.2609 9.9045 38.2609 20C38.2609 30.0955 30.0955 38.2609 20 38.2609C9.9045 38.2609 1.73913 30.0955 1.73913 20C1.73913 9.9045 9.9045 1.73913 20 1.73913ZM12.1739 8.69565C10.7435 8.69565 9.56522 9.8739 9.56522 11.3043C9.56522 12.7348 10.7435 13.913 12.1739 13.913C13.6044 13.913 14.7826 12.7348 14.7826 11.3043C14.7826 9.8739 13.6044 8.69565 12.1739 8.69565ZM12.1739 10.4348C12.6645 10.4348 13.0435 10.8138 13.0435 11.3043C13.0435 11.7949 12.6645 12.1739 12.1739 12.1739C11.6834 12.1739 11.3043 11.7949 11.3043 11.3043C11.3043 10.8138 11.6834 10.4348 12.1739 10.4348ZM10.4348 14.7826C10.2042 14.7826 9.983 14.8743 9.81993 15.0373C9.65686 15.2004 9.56524 15.4216 9.56522 15.6522V28.6957C9.56524 28.9263 9.65686 29.1474 9.81993 29.3105C9.983 29.4736 10.2042 29.5652 10.4348 29.5652H13.913C14.1437 29.5652 14.3648 29.4736 14.5279 29.3105C14.691 29.1474 14.7826 28.9263 14.7826 28.6957V15.6522C14.7826 15.4216 14.691 15.2004 14.5279 15.0373C14.3648 14.8743 14.1437 14.7826 13.913 14.7826H10.4348ZM17.3913 14.7826C17.1607 14.7826 16.9395 14.8743 16.7765 15.0373C16.6134 15.2004 16.5218 15.4216 16.5217 15.6522V28.6957C16.5218 28.9263 16.6134 29.1474 16.7765 29.3105C16.9395 29.4736 17.1607 29.5652 17.3913 29.5652H20.8696C21.1002 29.5652 21.3213 29.4736 21.4844 29.3105C21.6475 29.1474 21.7391 28.9263 21.7391 28.6957V22.1739C21.7391 20.9743 22.7134 20 23.913 20C25.1126 20 26.087 20.9743 26.087 22.1739V24.3478V28.6957C26.087 28.9263 26.1786 29.1474 26.3417 29.3105C26.5047 29.4736 26.7259 29.5652 26.9565 29.5652H30.4348C30.6654 29.5652 30.8866 29.4736 31.0496 29.3105C31.2127 29.1474 31.3043 28.9263 31.3043 28.6957V21.3043C31.3043 17.7127 28.3743 14.7826 24.7826 14.7826C23.6639 14.7826 22.6606 15.1445 21.7391 15.6437C21.7369 15.4145 21.6443 15.1956 21.4814 15.0343C21.3186 14.8731 21.0987 14.7826 20.8696 14.7826H17.3913ZM11.3043 16.5217H13.0435V27.8261H11.3043V16.5217ZM18.2609 16.5217H20V17.2317C20 17.4022 20.0502 17.569 20.1443 17.7112C20.2383 17.8535 20.3722 17.965 20.5291 18.0317C20.686 18.0985 20.8591 18.1177 21.0269 18.0869C21.1946 18.056 21.3496 17.9766 21.4725 17.8584C22.3341 17.0307 23.4928 16.5217 24.7826 16.5217C27.4344 16.5217 29.5652 18.6525 29.5652 21.3043V27.8261H27.8261V24.3478V22.1739C27.8261 20.0257 26.0613 18.2609 23.913 18.2609C21.7648 18.2609 20 20.0257 20 22.1739V27.8261H18.2609V16.5217Z" fill="white"/>
</svg>
